<?xml version="1.0" standalone="no"?>
<!DOCTYPE svg PUBLIC "-//W3C//DTD SVG 20010904//EN"
 "http://www.w3.org/TR/2001/REC-SVG-20010904/DTD/svg10.dtd">
<svg version="1.0" xmlns="http://www.w3.org/2000/svg"
 width="204.000000pt" height="295.000000pt" viewBox="0 0 204.000000 295.000000"
 preserveAspectRatio="xMidYMid meet">
<metadata>
Created by potrace 1.16, written by Peter Selinger 2001-2019
</metadata>
<g transform="translate(0.000000,295.000000) scale(0.100000,-0.100000)"
fill="#000000" stroke="none">
<path d="M488 2858 c-20 -28 -23 -49 -29 -163 -4 -71 -4 -144 -2 -162 3 -19
-5 -62 -22 -112 -23 -69 -26 -93 -22 -168 2 -50 11 -107 21 -132 17 -44 17
-48 -11 -175 -34 -164 -38 -328 -9 -421 10 -33 27 -89 38 -125 21 -67 62 -173
77 -201 5 -8 16 -42 25 -75 9 -32 22 -82 30 -110 8 -28 17 -111 20 -185 4 -74
9 -158 12 -187 l5 -52 -60 4 c-33 2 -79 -1 -103 -7 -72 -18 -158 -121 -158
-190 0 -36 54 -113 100 -142 22 -14 64 -34 93 -44 202 -70 207 -72 492 -96
169 -14 251 -12 350 9 11 3 27 5 36 5 8 1 40 16 70 34 30 18 65 33 79 34 21 2
77 12 103 18 4 2 14 3 22 4 28 2 96 74 124 130 38 76 96 233 116 309 14 57 14
70 0 145 -13 66 -15 117 -9 262 7 189 2 229 -59 491 -25 105 -103 250 -179
329 -78 83 -134 116 -238 143 -67 17 -77 23 -91 52 -9 18 -17 60 -18 94 -1 34
-7 97 -13 141 -14 93 -14 96 -3 240 11 163 8 226 -14 255 -35 46 -76 28 -210
-93 l-54 -48 -56 7 c-31 4 -87 8 -124 8 l-68 2 -87 89 c-130 133 -136 136
-174 83z"/>
</g>
</svg>
